<svg xmlns="http://www.w3.org/2000/svg" viewBox="100 200 824 700" width="824" height="700">
<path d="M240 266 h544 a124 124 0 0 1 124 124 v190 a124 124 0 0 1 -124 124 h-300 l-132 112 a12 12 0 0 1 -20 -9 v-103 h-92 a124 124 0 0 1 -124 -124 v-190 a124 124 0 0 1 124 -124z" fill="#FFFFFF" fill-opacity=".1" stroke="#FFFFFF" stroke-opacity=".35" stroke-width="10"/>
<g fill="#FF7F57">
  <rect x="300" y="463" width="424" height="38" rx="14"/>
  <rect x="318" y="372" width="64" height="220" rx="24"/>
  <rect x="392" y="410" width="40" height="144" rx="16"/>
  <rect x="642" y="372" width="64" height="220" rx="24"/>
  <rect x="592" y="410" width="40" height="144" rx="16"/>
</g>
</svg>
